<svg width="512" height="512" viewBox="0 0 512 512" fill="none" xmlns="http://www.w3.org/2000/svg">
<path d="M380.058 268.8C377.118 297.292 364.494 323.912 344.291 344.217C324.089 364.522 297.532 377.281 269.056 380.365C268.483 380.358 267.914 380.466 267.383 380.682C266.851 380.898 266.369 381.219 265.963 381.624C265.558 382.03 265.238 382.512 265.021 383.043C264.805 383.574 264.697 384.143 264.704 384.717V477.849C264.704 480.158 263.787 482.372 262.155 484.004C260.522 485.636 258.309 486.553 256 486.553C253.692 486.553 251.478 485.636 249.845 484.004C248.213 482.372 247.296 480.158 247.296 477.849V444.057C247.213 442.931 246.728 441.871 245.929 441.072C245.13 440.274 244.071 439.788 242.944 439.705C204.232 436.573 167.513 421.238 138.071 395.909C108.629 370.579 87.9827 336.562 79.1041 298.752C78.7736 297.632 78.672 296.456 78.8052 295.296C78.9384 294.136 79.3038 293.014 79.8797 291.998C80.4555 290.982 81.2299 290.092 82.1569 289.381C83.0838 288.671 84.1443 288.154 85.2751 287.862C86.4059 287.57 87.584 287.508 88.7391 287.681C89.8943 287.853 91.0029 288.257 91.9988 288.867C92.9948 289.477 93.8578 290.281 94.5364 291.232C95.215 292.182 95.6954 293.26 95.9489 294.4C103.842 328.339 122.247 358.92 148.541 381.784C174.835 404.649 207.675 418.63 242.381 421.734C243.507 422.297 244.582 421.734 245.658 420.659C246.226 420.338 246.686 419.855 246.978 419.271C247.27 418.687 247.38 418.03 247.296 417.382V384.717C247.303 384.143 247.195 383.574 246.979 383.043C246.763 382.512 246.442 382.03 246.037 381.624C245.631 381.219 245.149 380.898 244.618 380.682C244.087 380.466 243.518 380.358 242.944 380.365C214.603 377.207 188.157 364.58 167.885 344.525C147.617 324.154 134.964 297.438 132.045 268.851C131.879 267.805 131.354 266.849 130.559 266.149C129.765 265.448 128.752 265.046 127.693 265.011H34.5601C32.1838 265.011 29.9047 264.067 28.2244 262.387C26.5441 260.706 25.6001 258.427 25.6001 256.051C25.6001 253.675 26.5441 251.396 28.2244 249.715C29.9047 248.035 32.1838 247.091 34.5601 247.091H69.9393C70.995 247.047 72.0035 246.641 72.7958 245.942C73.5881 245.243 74.1161 244.293 74.2913 243.251C76.6146 204.597 90.9766 167.639 115.364 137.559C139.751 107.479 172.94 85.7857 210.278 75.5199C212.54 75.0907 214.879 75.5429 216.818 76.7839C218.756 78.0248 220.146 79.9603 220.703 82.1935C221.259 84.4267 220.94 86.7882 219.811 88.7937C218.682 90.7993 216.829 92.2968 214.63 92.9791C181.226 101.987 151.468 121.201 129.512 147.94C107.555 174.678 94.4971 207.606 92.1601 242.125C92.0157 242.761 92.0215 243.421 92.1769 244.055C92.3323 244.688 92.633 245.276 93.0554 245.773C93.4777 246.27 94.01 246.662 94.61 246.917C95.21 247.173 95.8612 247.285 96.5121 247.245H127.488C128.547 247.21 129.56 246.808 130.355 246.107C131.149 245.406 131.674 244.451 131.84 243.405C134.739 214.861 147.359 188.18 167.586 167.832C187.813 147.484 214.418 134.705 242.944 131.635C243.518 131.642 244.087 131.534 244.618 131.318C245.149 131.102 245.631 130.781 246.037 130.376C246.442 129.97 246.763 129.488 246.979 128.957C247.195 128.426 247.303 127.857 247.296 127.283V34.1503C247.296 31.8418 248.213 29.6279 249.845 27.9956C251.478 26.3633 253.692 25.4463 256 25.4463C258.309 25.4463 260.522 26.3633 262.155 27.9956C263.787 29.6279 264.704 31.8418 264.704 34.1503V139.776C264.763 141.008 264.563 142.239 264.118 143.39C263.673 144.541 262.992 145.586 262.12 146.459C261.247 147.331 260.202 148.012 259.051 148.457C257.9 148.902 256.669 149.102 255.437 149.043C160.768 149.043 113.459 264.96 180.378 331.929C247.296 398.899 361.523 350.976 363.162 256C363.148 254.853 363.364 253.715 363.796 252.653C364.229 251.591 364.869 250.626 365.68 249.815C366.491 249.004 367.456 248.363 368.519 247.93C369.581 247.498 370.719 247.282 371.866 247.296H477.44C479.816 247.296 482.095 248.24 483.776 249.92C485.456 251.601 486.4 253.88 486.4 256.256C486.4 258.632 485.456 260.911 483.776 262.592C482.095 264.272 479.816 265.216 477.44 265.216H442.624C441.544 265.172 440.488 265.547 439.678 266.263C438.867 266.978 438.364 267.979 438.272 269.056C435.447 307.951 420.404 344.959 395.293 374.796C370.182 404.634 336.286 425.774 298.445 435.2C287.027 437.913 283.085 420.505 294.605 417.792C328.399 409.39 358.706 390.597 381.256 364.06C403.805 337.524 417.462 304.582 420.301 269.875C420.445 269.239 420.44 268.578 420.284 267.945C420.129 267.312 419.828 266.723 419.406 266.226C418.983 265.73 418.451 265.338 417.851 265.083C417.251 264.827 416.6 264.715 415.949 264.755H384.41C383.351 264.79 382.337 265.192 381.543 265.893C380.749 266.593 380.224 267.549 380.058 268.595V268.8ZM450.56 124.006L387.635 186.573C386.098 188.242 383.963 189.235 381.696 189.337H339.763C338.619 189.438 337.514 189.806 336.538 190.413L261.99 265.523C260.314 267.089 258.096 267.944 255.802 267.907C253.508 267.871 251.318 266.946 249.693 265.327C248.068 263.708 247.134 261.522 247.088 259.228C247.042 256.935 247.887 254.713 249.446 253.03L323.994 177.869C324.495 177.617 324.915 177.229 325.205 176.749C325.495 176.269 325.643 175.716 325.632 175.155V133.12C325.621 131.909 325.857 130.708 326.323 129.591C326.789 128.473 327.477 127.462 328.346 126.617L390.912 64.1023C392.12 62.7962 393.694 61.8841 395.428 61.485C397.161 61.0859 398.975 61.2182 400.633 61.8647C402.291 62.5111 403.715 63.6418 404.721 65.1094C405.727 66.577 406.267 68.3135 406.272 70.0927V104.397C406.344 105.527 406.826 106.593 407.627 107.394C408.428 108.195 409.494 108.676 410.624 108.749H444.365C446.165 108.702 447.937 109.198 449.45 110.172C450.964 111.147 452.149 112.555 452.851 114.213C453.553 115.871 453.739 117.701 453.385 119.467C453.031 121.232 452.154 122.849 450.867 124.109L450.56 124.006ZM378.88 170.086L415.335 133.632C415.968 133.047 416.415 132.288 416.622 131.451C416.828 130.614 416.784 129.735 416.495 128.922C416.206 128.11 415.685 127.4 414.996 126.881C414.307 126.362 413.482 126.057 412.621 126.003H397.261C394.883 126.059 392.579 125.177 390.845 123.549C389.111 121.92 388.087 119.676 387.994 117.299V102.4C387.989 101.518 387.726 100.657 387.238 99.9232C386.749 99.1894 386.055 98.6152 385.243 98.2718C384.431 97.9284 383.536 97.8309 382.668 97.9913C381.801 98.1517 381 98.563 380.365 99.1743L344.525 135.629C343.568 136.462 342.979 137.64 342.886 138.905V167.219C342.88 167.793 342.987 168.362 343.204 168.893C343.42 169.424 343.74 169.906 344.146 170.312C344.551 170.717 345.034 171.038 345.565 171.254C346.096 171.47 346.665 171.578 347.238 171.571H376.064C377.19 171.571 378.266 171.571 378.778 170.445L378.88 170.086ZM329.933 256.102C329.953 270.741 325.63 285.058 317.511 297.239C309.391 309.42 297.841 318.919 284.321 324.532C270.801 330.146 255.919 331.623 241.559 328.776C227.2 325.929 214.008 318.885 203.652 308.537C193.297 298.189 186.245 285.002 183.388 270.645C180.531 256.287 181.997 241.404 187.602 227.88C193.206 214.357 202.697 202.799 214.872 194.671C227.048 186.544 241.361 182.211 256 182.221C258.2 182.389 260.255 183.382 261.754 185.001C263.253 186.619 264.086 188.744 264.086 190.95C264.086 193.156 263.253 195.281 261.754 196.9C260.255 198.518 258.2 199.511 256 199.68C241.063 199.68 226.738 205.614 216.176 216.176C205.614 226.738 199.68 241.063 199.68 256C199.68 270.937 205.614 285.262 216.176 295.824C226.738 306.386 241.063 312.32 256 312.32C288.666 312.32 310.426 287.846 312.013 256C311.962 254.765 312.165 253.532 312.611 252.379C313.057 251.226 313.735 250.177 314.604 249.297C315.472 248.417 316.513 247.725 317.66 247.265C318.807 246.804 320.037 246.585 321.273 246.62C322.509 246.655 323.724 246.944 324.843 247.469C325.963 247.994 326.962 248.744 327.779 249.672C328.596 250.6 329.214 251.686 329.593 252.863C329.972 254.039 330.105 255.282 329.984 256.512L329.933 256.102Z" fill="#BC002D"/>
</svg>
